<mxfile host="app.diagrams.net" modified="2024-06-23T06:14:42.261Z" agent="Mozilla/5.0 (Windows NT 10.0; Win64; x64; rv:127.0) Gecko/20100101 Firefox/127.0" etag="GerK-UO4ijcnhLs8nGyx" version="24.6.2" type="github">
  <diagram id="R2lEEEUBdFMjLlhIrx00" name="Page-1">
    <mxGraphModel dx="3604" dy="2363" grid="1" gridSize="7" guides="1" tooltips="1" connect="1" arrows="1" fold="1" page="1" pageScale="1" pageWidth="850" pageHeight="1100" math="0" shadow="0" extFonts="Permanent Marker^https://fonts.googleapis.com/css?family=Permanent+Marker">
      <root>
        <mxCell id="0" />
        <mxCell id="1" parent="0" />
        <mxCell id="ynILaGJSniYz3ZEpiR_t-1" value="room_setting" style="swimlane;fontStyle=1;childLayout=stackLayout;horizontal=1;startSize=26;horizontalStack=0;resizeParent=1;resizeParentMax=0;resizeLast=0;collapsible=1;marginBottom=0;align=center;fontSize=14;labelBackgroundColor=none;fillColor=#56517E;strokeColor=#EEEEEE;fontColor=#FFFFFF;rounded=1;" vertex="1" parent="1">
          <mxGeometry x="-217" y="-98" width="160" height="146" as="geometry" />
        </mxCell>
        <mxCell id="ynILaGJSniYz3ZEpiR_t-2" value="id" style="text;strokeColor=#EEEEEE;fillColor=#56517E;spacingLeft=4;spacingRight=4;overflow=hidden;rotatable=0;points=[[0,0.5],[1,0.5]];portConstraint=eastwest;fontSize=12;whiteSpace=wrap;html=1;labelBackgroundColor=none;fontColor=#FFFFFF;rounded=1;" vertex="1" parent="ynILaGJSniYz3ZEpiR_t-1">
          <mxGeometry y="26" width="160" height="30" as="geometry" />
        </mxCell>
        <mxCell id="ynILaGJSniYz3ZEpiR_t-3" value="category_id" style="text;strokeColor=#EEEEEE;fillColor=#56517E;spacingLeft=4;spacingRight=4;overflow=hidden;rotatable=0;points=[[0,0.5],[1,0.5]];portConstraint=eastwest;fontSize=12;whiteSpace=wrap;html=1;labelBackgroundColor=none;fontColor=#FFFFFF;rounded=1;" vertex="1" parent="ynILaGJSniYz3ZEpiR_t-1">
          <mxGeometry y="56" width="160" height="30" as="geometry" />
        </mxCell>
        <mxCell id="ynILaGJSniYz3ZEpiR_t-4" value="rating_id" style="text;strokeColor=#EEEEEE;fillColor=#56517E;spacingLeft=4;spacingRight=4;overflow=hidden;rotatable=0;points=[[0,0.5],[1,0.5]];portConstraint=eastwest;fontSize=12;whiteSpace=wrap;html=1;labelBackgroundColor=none;fontColor=#FFFFFF;rounded=1;" vertex="1" parent="ynILaGJSniYz3ZEpiR_t-1">
          <mxGeometry y="86" width="160" height="30" as="geometry" />
        </mxCell>
        <mxCell id="ynILaGJSniYz3ZEpiR_t-5" value="guest_id" style="text;strokeColor=#EEEEEE;fillColor=#56517E;spacingLeft=4;spacingRight=4;overflow=hidden;rotatable=0;points=[[0,0.5],[1,0.5]];portConstraint=eastwest;fontSize=12;whiteSpace=wrap;html=1;labelBackgroundColor=none;fontColor=#FFFFFF;rounded=1;" vertex="1" parent="ynILaGJSniYz3ZEpiR_t-1">
          <mxGeometry y="116" width="160" height="30" as="geometry" />
        </mxCell>
        <mxCell id="ynILaGJSniYz3ZEpiR_t-6" value="room_coupon" style="swimlane;fontStyle=1;childLayout=stackLayout;horizontal=1;startSize=26;horizontalStack=0;resizeParent=1;resizeParentMax=0;resizeLast=0;collapsible=1;marginBottom=0;align=center;fontSize=14;labelBackgroundColor=none;fillColor=#56517E;strokeColor=#EEEEEE;fontColor=#FFFFFF;rounded=1;movable=1;resizable=1;rotatable=1;deletable=1;editable=1;locked=0;connectable=1;" vertex="1" parent="1">
          <mxGeometry x="561" y="70" width="160" height="176" as="geometry" />
        </mxCell>
        <mxCell id="ynILaGJSniYz3ZEpiR_t-7" value="id" style="text;strokeColor=#EEEEEE;fillColor=#56517E;spacingLeft=4;spacingRight=4;overflow=hidden;rotatable=1;points=[[0,0.5],[1,0.5]];portConstraint=eastwest;fontSize=12;whiteSpace=wrap;html=1;labelBackgroundColor=none;fontColor=#FFFFFF;rounded=1;movable=1;resizable=1;deletable=1;editable=1;locked=0;connectable=1;" vertex="1" parent="ynILaGJSniYz3ZEpiR_t-6">
          <mxGeometry y="26" width="160" height="30" as="geometry" />
        </mxCell>
        <mxCell id="ynILaGJSniYz3ZEpiR_t-8" value="coupon_name" style="text;strokeColor=#EEEEEE;fillColor=#56517E;spacingLeft=4;spacingRight=4;overflow=hidden;rotatable=1;points=[[0,0.5],[1,0.5]];portConstraint=eastwest;fontSize=12;whiteSpace=wrap;html=1;labelBackgroundColor=none;fontColor=#FFFFFF;rounded=1;movable=1;resizable=1;deletable=1;editable=1;locked=0;connectable=1;" vertex="1" parent="ynILaGJSniYz3ZEpiR_t-6">
          <mxGeometry y="56" width="160" height="30" as="geometry" />
        </mxCell>
        <mxCell id="ynILaGJSniYz3ZEpiR_t-9" value="coupon_code" style="text;strokeColor=#EEEEEE;fillColor=#56517E;spacingLeft=4;spacingRight=4;overflow=hidden;rotatable=1;points=[[0,0.5],[1,0.5]];portConstraint=eastwest;fontSize=12;whiteSpace=wrap;html=1;labelBackgroundColor=none;fontColor=#FFFFFF;rounded=1;movable=1;resizable=1;deletable=1;editable=1;locked=0;connectable=1;" vertex="1" parent="ynILaGJSniYz3ZEpiR_t-6">
          <mxGeometry y="86" width="160" height="30" as="geometry" />
        </mxCell>
        <mxCell id="ynILaGJSniYz3ZEpiR_t-10" value="coupon_discount" style="text;strokeColor=#EEEEEE;fillColor=#56517E;spacingLeft=4;spacingRight=4;overflow=hidden;rotatable=1;points=[[0,0.5],[1,0.5]];portConstraint=eastwest;fontSize=12;whiteSpace=wrap;html=1;labelBackgroundColor=none;fontColor=#FFFFFF;rounded=1;movable=1;resizable=1;deletable=1;editable=1;locked=0;connectable=1;" vertex="1" parent="ynILaGJSniYz3ZEpiR_t-6">
          <mxGeometry y="116" width="160" height="30" as="geometry" />
        </mxCell>
        <mxCell id="ynILaGJSniYz3ZEpiR_t-11" value="coupon_status" style="text;strokeColor=#EEEEEE;fillColor=#56517E;spacingLeft=4;spacingRight=4;overflow=hidden;rotatable=1;points=[[0,0.5],[1,0.5]];portConstraint=eastwest;fontSize=12;whiteSpace=wrap;html=1;labelBackgroundColor=none;fontColor=#FFFFFF;rounded=1;movable=1;resizable=1;deletable=1;editable=1;locked=0;connectable=1;" vertex="1" parent="ynILaGJSniYz3ZEpiR_t-6">
          <mxGeometry y="146" width="160" height="30" as="geometry" />
        </mxCell>
        <mxCell id="ynILaGJSniYz3ZEpiR_t-12" value="room_amenities" style="swimlane;fontStyle=1;childLayout=stackLayout;horizontal=1;startSize=26;horizontalStack=0;resizeParent=1;resizeParentMax=0;resizeLast=0;collapsible=1;marginBottom=0;align=center;fontSize=14;labelBackgroundColor=none;fillColor=#56517E;strokeColor=#EEEEEE;fontColor=#FFFFFF;rounded=1;" vertex="1" parent="1">
          <mxGeometry x="561" y="-105" width="160" height="146" as="geometry" />
        </mxCell>
        <mxCell id="ynILaGJSniYz3ZEpiR_t-13" value="id" style="text;strokeColor=#EEEEEE;fillColor=#56517E;spacingLeft=4;spacingRight=4;overflow=hidden;rotatable=0;points=[[0,0.5],[1,0.5]];portConstraint=eastwest;fontSize=12;whiteSpace=wrap;html=1;labelBackgroundColor=none;fontColor=#FFFFFF;rounded=1;" vertex="1" parent="ynILaGJSniYz3ZEpiR_t-12">
          <mxGeometry y="26" width="160" height="30" as="geometry" />
        </mxCell>
        <mxCell id="ynILaGJSniYz3ZEpiR_t-92" value="room_id ( foreign key )" style="text;strokeColor=#EEEEEE;fillColor=#56517E;spacingLeft=4;spacingRight=4;overflow=hidden;rotatable=0;points=[[0,0.5],[1,0.5]];portConstraint=eastwest;fontSize=12;whiteSpace=wrap;html=1;labelBackgroundColor=none;fontColor=#FFFFFF;rounded=1;" vertex="1" parent="ynILaGJSniYz3ZEpiR_t-12">
          <mxGeometry y="56" width="160" height="30" as="geometry" />
        </mxCell>
        <mxCell id="ynILaGJSniYz3ZEpiR_t-14" value="amenity_name" style="text;strokeColor=#EEEEEE;fillColor=#56517E;spacingLeft=4;spacingRight=4;overflow=hidden;rotatable=0;points=[[0,0.5],[1,0.5]];portConstraint=eastwest;fontSize=12;whiteSpace=wrap;html=1;labelBackgroundColor=none;fontColor=#FFFFFF;rounded=1;" vertex="1" parent="ynILaGJSniYz3ZEpiR_t-12">
          <mxGeometry y="86" width="160" height="30" as="geometry" />
        </mxCell>
        <mxCell id="ynILaGJSniYz3ZEpiR_t-18" value="amenity_slug" style="text;strokeColor=#EEEEEE;fillColor=#56517E;spacingLeft=4;spacingRight=4;overflow=hidden;rotatable=0;points=[[0,0.5],[1,0.5]];portConstraint=eastwest;fontSize=12;whiteSpace=wrap;html=1;labelBackgroundColor=none;fontColor=#FFFFFF;rounded=1;" vertex="1" parent="ynILaGJSniYz3ZEpiR_t-12">
          <mxGeometry y="116" width="160" height="30" as="geometry" />
        </mxCell>
        <mxCell id="ynILaGJSniYz3ZEpiR_t-19" value="room_categories" style="swimlane;fontStyle=1;childLayout=stackLayout;horizontal=1;startSize=26;horizontalStack=0;resizeParent=1;resizeParentMax=0;resizeLast=0;collapsible=1;marginBottom=0;align=center;fontSize=14;labelBackgroundColor=none;fillColor=#56517E;strokeColor=#EEEEEE;fontColor=#FFFFFF;rounded=1;movable=1;resizable=1;rotatable=1;deletable=1;editable=1;locked=0;connectable=1;" vertex="1" parent="1">
          <mxGeometry x="63" y="-42" width="160" height="146" as="geometry" />
        </mxCell>
        <mxCell id="ynILaGJSniYz3ZEpiR_t-20" value="id" style="text;strokeColor=#EEEEEE;fillColor=#56517E;spacingLeft=4;spacingRight=4;overflow=hidden;rotatable=1;points=[[0,0.5],[1,0.5]];portConstraint=eastwest;fontSize=12;whiteSpace=wrap;html=1;labelBackgroundColor=none;fontColor=#FFFFFF;rounded=1;movable=1;resizable=1;deletable=1;editable=1;locked=0;connectable=1;" vertex="1" parent="ynILaGJSniYz3ZEpiR_t-19">
          <mxGeometry y="26" width="160" height="30" as="geometry" />
        </mxCell>
        <mxCell id="ynILaGJSniYz3ZEpiR_t-21" value="category_name" style="text;strokeColor=#EEEEEE;fillColor=#56517E;spacingLeft=4;spacingRight=4;overflow=hidden;rotatable=1;points=[[0,0.5],[1,0.5]];portConstraint=eastwest;fontSize=12;whiteSpace=wrap;html=1;labelBackgroundColor=none;fontColor=#FFFFFF;rounded=1;movable=1;resizable=1;deletable=1;editable=1;locked=0;connectable=1;" vertex="1" parent="ynILaGJSniYz3ZEpiR_t-19">
          <mxGeometry y="56" width="160" height="30" as="geometry" />
        </mxCell>
        <mxCell id="ynILaGJSniYz3ZEpiR_t-25" value="category_slug" style="text;strokeColor=#EEEEEE;fillColor=#56517E;spacingLeft=4;spacingRight=4;overflow=hidden;rotatable=1;points=[[0,0.5],[1,0.5]];portConstraint=eastwest;fontSize=12;whiteSpace=wrap;html=1;labelBackgroundColor=none;fontColor=#FFFFFF;rounded=1;movable=1;resizable=1;deletable=1;editable=1;locked=0;connectable=1;" vertex="1" parent="ynILaGJSniYz3ZEpiR_t-19">
          <mxGeometry y="86" width="160" height="30" as="geometry" />
        </mxCell>
        <mxCell id="ynILaGJSniYz3ZEpiR_t-26" value="category_status" style="text;strokeColor=#EEEEEE;fillColor=#56517E;spacingLeft=4;spacingRight=4;overflow=hidden;rotatable=1;points=[[0,0.5],[1,0.5]];portConstraint=eastwest;fontSize=12;whiteSpace=wrap;html=1;labelBackgroundColor=none;fontColor=#FFFFFF;rounded=1;movable=1;resizable=1;deletable=1;editable=1;locked=0;connectable=1;" vertex="1" parent="ynILaGJSniYz3ZEpiR_t-19">
          <mxGeometry y="116" width="160" height="30" as="geometry" />
        </mxCell>
        <mxCell id="ynILaGJSniYz3ZEpiR_t-27" value="rooms" style="swimlane;fontStyle=1;childLayout=stackLayout;horizontal=1;startSize=26;horizontalStack=0;resizeParent=1;resizeParentMax=0;resizeLast=0;collapsible=1;marginBottom=0;align=center;fontSize=14;labelBackgroundColor=none;fillColor=#56517E;strokeColor=#EEEEEE;fontColor=#FFFFFF;rounded=1;movable=1;resizable=1;rotatable=1;deletable=1;editable=1;locked=0;connectable=1;" vertex="1" parent="1">
          <mxGeometry x="308" y="-49" width="160" height="176" as="geometry" />
        </mxCell>
        <mxCell id="ynILaGJSniYz3ZEpiR_t-28" value="id" style="text;strokeColor=#EEEEEE;fillColor=#56517E;spacingLeft=4;spacingRight=4;overflow=hidden;rotatable=1;points=[[0,0.5],[1,0.5]];portConstraint=eastwest;fontSize=12;whiteSpace=wrap;html=1;labelBackgroundColor=none;fontColor=#FFFFFF;rounded=1;movable=1;resizable=1;deletable=1;editable=1;locked=0;connectable=1;" vertex="1" parent="ynILaGJSniYz3ZEpiR_t-27">
          <mxGeometry y="26" width="160" height="30" as="geometry" />
        </mxCell>
        <mxCell id="ynILaGJSniYz3ZEpiR_t-29" value="room_title" style="text;strokeColor=#EEEEEE;fillColor=#56517E;spacingLeft=4;spacingRight=4;overflow=hidden;rotatable=1;points=[[0,0.5],[1,0.5]];portConstraint=eastwest;fontSize=12;whiteSpace=wrap;html=1;labelBackgroundColor=none;fontColor=#FFFFFF;rounded=1;movable=1;resizable=1;deletable=1;editable=1;locked=0;connectable=1;" vertex="1" parent="ynILaGJSniYz3ZEpiR_t-27">
          <mxGeometry y="56" width="160" height="30" as="geometry" />
        </mxCell>
        <mxCell id="ynILaGJSniYz3ZEpiR_t-33" value="category_id ( foreign key )" style="text;strokeColor=#EEEEEE;fillColor=#56517E;spacingLeft=4;spacingRight=4;overflow=hidden;rotatable=1;points=[[0,0.5],[1,0.5]];portConstraint=eastwest;fontSize=12;whiteSpace=wrap;html=1;labelBackgroundColor=none;fontColor=#FFFFFF;rounded=1;movable=1;resizable=1;deletable=1;editable=1;locked=0;connectable=1;" vertex="1" parent="ynILaGJSniYz3ZEpiR_t-27">
          <mxGeometry y="86" width="160" height="30" as="geometry" />
        </mxCell>
        <mxCell id="ynILaGJSniYz3ZEpiR_t-35" value="featured ( Yes or No )" style="text;strokeColor=#EEEEEE;fillColor=#56517E;spacingLeft=4;spacingRight=4;overflow=hidden;rotatable=1;points=[[0,0.5],[1,0.5]];portConstraint=eastwest;fontSize=12;whiteSpace=wrap;html=1;labelBackgroundColor=none;fontColor=#FFFFFF;rounded=1;movable=1;resizable=1;deletable=1;editable=1;locked=0;connectable=1;" vertex="1" parent="ynILaGJSniYz3ZEpiR_t-27">
          <mxGeometry y="116" width="160" height="30" as="geometry" />
        </mxCell>
        <mxCell id="ynILaGJSniYz3ZEpiR_t-36" value="room_rent" style="text;strokeColor=#EEEEEE;fillColor=#56517E;spacingLeft=4;spacingRight=4;overflow=hidden;rotatable=1;points=[[0,0.5],[1,0.5]];portConstraint=eastwest;fontSize=12;whiteSpace=wrap;html=1;labelBackgroundColor=none;fontColor=#FFFFFF;rounded=1;movable=1;resizable=1;deletable=1;editable=1;locked=0;connectable=1;" vertex="1" parent="ynILaGJSniYz3ZEpiR_t-27">
          <mxGeometry y="146" width="160" height="30" as="geometry" />
        </mxCell>
        <mxCell id="ynILaGJSniYz3ZEpiR_t-46" value="room_bookings" style="swimlane;fontStyle=1;childLayout=stackLayout;horizontal=1;startSize=26;horizontalStack=0;resizeParent=1;resizeParentMax=0;resizeLast=0;collapsible=1;marginBottom=0;align=center;fontSize=14;labelBackgroundColor=none;fillColor=#56517E;strokeColor=#EEEEEE;fontColor=#FFFFFF;rounded=1;movable=1;resizable=1;rotatable=1;deletable=1;editable=1;locked=0;connectable=1;" vertex="1" parent="1">
          <mxGeometry x="63" y="203" width="160" height="236" as="geometry" />
        </mxCell>
        <mxCell id="ynILaGJSniYz3ZEpiR_t-47" value="id" style="text;strokeColor=#EEEEEE;fillColor=#56517E;spacingLeft=4;spacingRight=4;overflow=hidden;rotatable=1;points=[[0,0.5],[1,0.5]];portConstraint=eastwest;fontSize=12;whiteSpace=wrap;html=1;labelBackgroundColor=none;fontColor=#FFFFFF;rounded=1;movable=1;resizable=1;deletable=1;editable=1;locked=0;connectable=1;" vertex="1" parent="ynILaGJSniYz3ZEpiR_t-46">
          <mxGeometry y="26" width="160" height="30" as="geometry" />
        </mxCell>
        <mxCell id="ynILaGJSniYz3ZEpiR_t-48" value="booking_id" style="text;strokeColor=#EEEEEE;fillColor=#56517E;spacingLeft=4;spacingRight=4;overflow=hidden;rotatable=1;points=[[0,0.5],[1,0.5]];portConstraint=eastwest;fontSize=12;whiteSpace=wrap;html=1;labelBackgroundColor=none;fontColor=#FFFFFF;rounded=1;movable=1;resizable=1;deletable=1;editable=1;locked=0;connectable=1;" vertex="1" parent="ynILaGJSniYz3ZEpiR_t-46">
          <mxGeometry y="56" width="160" height="30" as="geometry" />
        </mxCell>
        <mxCell id="ynILaGJSniYz3ZEpiR_t-52" value="customer_id ( foreign key )" style="text;strokeColor=#EEEEEE;fillColor=#56517E;spacingLeft=4;spacingRight=4;overflow=hidden;rotatable=1;points=[[0,0.5],[1,0.5]];portConstraint=eastwest;fontSize=12;whiteSpace=wrap;html=1;labelBackgroundColor=none;fontColor=#FFFFFF;rounded=1;movable=1;resizable=1;deletable=1;editable=1;locked=0;connectable=1;" vertex="1" parent="ynILaGJSniYz3ZEpiR_t-46">
          <mxGeometry y="86" width="160" height="30" as="geometry" />
        </mxCell>
        <mxCell id="ynILaGJSniYz3ZEpiR_t-53" value="room_id ( foreign key )" style="text;strokeColor=#EEEEEE;fillColor=#56517E;spacingLeft=4;spacingRight=4;overflow=hidden;rotatable=1;points=[[0,0.5],[1,0.5]];portConstraint=eastwest;fontSize=12;whiteSpace=wrap;html=1;labelBackgroundColor=none;fontColor=#FFFFFF;rounded=1;movable=1;resizable=1;deletable=1;editable=1;locked=0;connectable=1;" vertex="1" parent="ynILaGJSniYz3ZEpiR_t-46">
          <mxGeometry y="116" width="160" height="30" as="geometry" />
        </mxCell>
        <mxCell id="ynILaGJSniYz3ZEpiR_t-55" value="payment_method" style="text;strokeColor=#EEEEEE;fillColor=#56517E;spacingLeft=4;spacingRight=4;overflow=hidden;rotatable=1;points=[[0,0.5],[1,0.5]];portConstraint=eastwest;fontSize=12;whiteSpace=wrap;html=1;labelBackgroundColor=none;fontColor=#FFFFFF;rounded=1;movable=1;resizable=1;deletable=1;editable=1;locked=0;connectable=1;" vertex="1" parent="ynILaGJSniYz3ZEpiR_t-46">
          <mxGeometry y="146" width="160" height="30" as="geometry" />
        </mxCell>
        <mxCell id="ynILaGJSniYz3ZEpiR_t-56" value="payment_status" style="text;strokeColor=#EEEEEE;fillColor=#56517E;spacingLeft=4;spacingRight=4;overflow=hidden;rotatable=1;points=[[0,0.5],[1,0.5]];portConstraint=eastwest;fontSize=12;whiteSpace=wrap;html=1;labelBackgroundColor=none;fontColor=#FFFFFF;rounded=1;movable=1;resizable=1;deletable=1;editable=1;locked=0;connectable=1;" vertex="1" parent="ynILaGJSniYz3ZEpiR_t-46">
          <mxGeometry y="176" width="160" height="30" as="geometry" />
        </mxCell>
        <mxCell id="ynILaGJSniYz3ZEpiR_t-57" value="attachment" style="text;strokeColor=#EEEEEE;fillColor=#56517E;spacingLeft=4;spacingRight=4;overflow=hidden;rotatable=1;points=[[0,0.5],[1,0.5]];portConstraint=eastwest;fontSize=12;whiteSpace=wrap;html=1;labelBackgroundColor=none;fontColor=#FFFFFF;rounded=1;movable=1;resizable=1;deletable=1;editable=1;locked=0;connectable=1;" vertex="1" parent="ynILaGJSniYz3ZEpiR_t-46">
          <mxGeometry y="206" width="160" height="30" as="geometry" />
        </mxCell>
        <mxCell id="ynILaGJSniYz3ZEpiR_t-58" value="users" style="swimlane;fontStyle=1;childLayout=stackLayout;horizontal=1;startSize=26;horizontalStack=0;resizeParent=1;resizeParentMax=0;resizeLast=0;collapsible=1;marginBottom=0;align=center;fontSize=14;labelBackgroundColor=none;fillColor=#56517E;strokeColor=#EEEEEE;fontColor=#FFFFFF;rounded=1;" vertex="1" parent="1">
          <mxGeometry x="345" y="210" width="160" height="191" as="geometry" />
        </mxCell>
        <mxCell id="ynILaGJSniYz3ZEpiR_t-59" value="id" style="text;strokeColor=#EEEEEE;fillColor=#56517E;spacingLeft=4;spacingRight=4;overflow=hidden;rotatable=0;points=[[0,0.5],[1,0.5]];portConstraint=eastwest;fontSize=12;whiteSpace=wrap;html=1;labelBackgroundColor=none;fontColor=#FFFFFF;rounded=1;" vertex="1" parent="ynILaGJSniYz3ZEpiR_t-58">
          <mxGeometry y="26" width="160" height="30" as="geometry" />
        </mxCell>
        <mxCell id="ynILaGJSniYz3ZEpiR_t-60" value="name" style="text;strokeColor=#EEEEEE;fillColor=#56517E;spacingLeft=4;spacingRight=4;overflow=hidden;rotatable=0;points=[[0,0.5],[1,0.5]];portConstraint=eastwest;fontSize=12;whiteSpace=wrap;html=1;labelBackgroundColor=none;fontColor=#FFFFFF;rounded=1;" vertex="1" parent="ynILaGJSniYz3ZEpiR_t-58">
          <mxGeometry y="56" width="160" height="30" as="geometry" />
        </mxCell>
        <mxCell id="ynILaGJSniYz3ZEpiR_t-61" value="email" style="text;strokeColor=#EEEEEE;fillColor=#56517E;spacingLeft=4;spacingRight=4;overflow=hidden;rotatable=0;points=[[0,0.5],[1,0.5]];portConstraint=eastwest;fontSize=12;whiteSpace=wrap;html=1;labelBackgroundColor=none;fontColor=#FFFFFF;rounded=1;" vertex="1" parent="ynILaGJSniYz3ZEpiR_t-58">
          <mxGeometry y="86" width="160" height="30" as="geometry" />
        </mxCell>
        <mxCell id="ynILaGJSniYz3ZEpiR_t-62" value="role ( admin, superadmin, customer etc. )" style="text;strokeColor=#EEEEEE;fillColor=#56517E;spacingLeft=4;spacingRight=4;overflow=hidden;rotatable=0;points=[[0,0.5],[1,0.5]];portConstraint=eastwest;fontSize=12;whiteSpace=wrap;html=1;labelBackgroundColor=none;fontColor=#FFFFFF;rounded=1;" vertex="1" parent="ynILaGJSniYz3ZEpiR_t-58">
          <mxGeometry y="116" width="160" height="45" as="geometry" />
        </mxCell>
        <mxCell id="ynILaGJSniYz3ZEpiR_t-63" value="password" style="text;strokeColor=#EEEEEE;fillColor=#56517E;spacingLeft=4;spacingRight=4;overflow=hidden;rotatable=0;points=[[0,0.5],[1,0.5]];portConstraint=eastwest;fontSize=12;whiteSpace=wrap;html=1;labelBackgroundColor=none;fontColor=#FFFFFF;rounded=1;" vertex="1" parent="ynILaGJSniYz3ZEpiR_t-58">
          <mxGeometry y="161" width="160" height="30" as="geometry" />
        </mxCell>
        <mxCell id="ynILaGJSniYz3ZEpiR_t-64" value="package_coupon" style="swimlane;fontStyle=1;childLayout=stackLayout;horizontal=1;startSize=26;horizontalStack=0;resizeParent=1;resizeParentMax=0;resizeLast=0;collapsible=1;marginBottom=0;align=center;fontSize=14;labelBackgroundColor=none;fillColor=#56517E;strokeColor=#EEEEEE;fontColor=#FFFFFF;rounded=1;movable=1;resizable=1;rotatable=1;deletable=1;editable=1;locked=0;connectable=1;" vertex="1" parent="1">
          <mxGeometry x="-252" y="550" width="160" height="176" as="geometry" />
        </mxCell>
        <mxCell id="ynILaGJSniYz3ZEpiR_t-65" value="id" style="text;strokeColor=#EEEEEE;fillColor=#56517E;spacingLeft=4;spacingRight=4;overflow=hidden;rotatable=1;points=[[0,0.5],[1,0.5]];portConstraint=eastwest;fontSize=12;whiteSpace=wrap;html=1;labelBackgroundColor=none;fontColor=#FFFFFF;rounded=1;movable=1;resizable=1;deletable=1;editable=1;locked=0;connectable=1;" vertex="1" parent="ynILaGJSniYz3ZEpiR_t-64">
          <mxGeometry y="26" width="160" height="30" as="geometry" />
        </mxCell>
        <mxCell id="ynILaGJSniYz3ZEpiR_t-66" value="coupon_name" style="text;strokeColor=#EEEEEE;fillColor=#56517E;spacingLeft=4;spacingRight=4;overflow=hidden;rotatable=1;points=[[0,0.5],[1,0.5]];portConstraint=eastwest;fontSize=12;whiteSpace=wrap;html=1;labelBackgroundColor=none;fontColor=#FFFFFF;rounded=1;movable=1;resizable=1;deletable=1;editable=1;locked=0;connectable=1;" vertex="1" parent="ynILaGJSniYz3ZEpiR_t-64">
          <mxGeometry y="56" width="160" height="30" as="geometry" />
        </mxCell>
        <mxCell id="ynILaGJSniYz3ZEpiR_t-67" value="coupon_code" style="text;strokeColor=#EEEEEE;fillColor=#56517E;spacingLeft=4;spacingRight=4;overflow=hidden;rotatable=1;points=[[0,0.5],[1,0.5]];portConstraint=eastwest;fontSize=12;whiteSpace=wrap;html=1;labelBackgroundColor=none;fontColor=#FFFFFF;rounded=1;movable=1;resizable=1;deletable=1;editable=1;locked=0;connectable=1;" vertex="1" parent="ynILaGJSniYz3ZEpiR_t-64">
          <mxGeometry y="86" width="160" height="30" as="geometry" />
        </mxCell>
        <mxCell id="ynILaGJSniYz3ZEpiR_t-68" value="coupon_discount" style="text;strokeColor=#EEEEEE;fillColor=#56517E;spacingLeft=4;spacingRight=4;overflow=hidden;rotatable=1;points=[[0,0.5],[1,0.5]];portConstraint=eastwest;fontSize=12;whiteSpace=wrap;html=1;labelBackgroundColor=none;fontColor=#FFFFFF;rounded=1;movable=1;resizable=1;deletable=1;editable=1;locked=0;connectable=1;" vertex="1" parent="ynILaGJSniYz3ZEpiR_t-64">
          <mxGeometry y="116" width="160" height="30" as="geometry" />
        </mxCell>
        <mxCell id="ynILaGJSniYz3ZEpiR_t-69" value="coupon_status" style="text;strokeColor=#EEEEEE;fillColor=#56517E;spacingLeft=4;spacingRight=4;overflow=hidden;rotatable=1;points=[[0,0.5],[1,0.5]];portConstraint=eastwest;fontSize=12;whiteSpace=wrap;html=1;labelBackgroundColor=none;fontColor=#FFFFFF;rounded=1;movable=1;resizable=1;deletable=1;editable=1;locked=0;connectable=1;" vertex="1" parent="ynILaGJSniYz3ZEpiR_t-64">
          <mxGeometry y="146" width="160" height="30" as="geometry" />
        </mxCell>
        <mxCell id="ynILaGJSniYz3ZEpiR_t-70" value="package_categories" style="swimlane;fontStyle=1;childLayout=stackLayout;horizontal=1;startSize=26;horizontalStack=0;resizeParent=1;resizeParentMax=0;resizeLast=0;collapsible=1;marginBottom=0;align=center;fontSize=14;labelBackgroundColor=none;fillColor=#56517E;strokeColor=#EEEEEE;fontColor=#FFFFFF;rounded=1;movable=1;resizable=1;rotatable=1;deletable=1;editable=1;locked=0;connectable=1;" vertex="1" parent="1">
          <mxGeometry x="616" y="700" width="160" height="146" as="geometry" />
        </mxCell>
        <mxCell id="ynILaGJSniYz3ZEpiR_t-71" value="id" style="text;strokeColor=#EEEEEE;fillColor=#56517E;spacingLeft=4;spacingRight=4;overflow=hidden;rotatable=1;points=[[0,0.5],[1,0.5]];portConstraint=eastwest;fontSize=12;whiteSpace=wrap;html=1;labelBackgroundColor=none;fontColor=#FFFFFF;rounded=1;movable=1;resizable=1;deletable=1;editable=1;locked=0;connectable=1;" vertex="1" parent="ynILaGJSniYz3ZEpiR_t-70">
          <mxGeometry y="26" width="160" height="30" as="geometry" />
        </mxCell>
        <mxCell id="ynILaGJSniYz3ZEpiR_t-72" value="category_name" style="text;strokeColor=#EEEEEE;fillColor=#56517E;spacingLeft=4;spacingRight=4;overflow=hidden;rotatable=1;points=[[0,0.5],[1,0.5]];portConstraint=eastwest;fontSize=12;whiteSpace=wrap;html=1;labelBackgroundColor=none;fontColor=#FFFFFF;rounded=1;movable=1;resizable=1;deletable=1;editable=1;locked=0;connectable=1;" vertex="1" parent="ynILaGJSniYz3ZEpiR_t-70">
          <mxGeometry y="56" width="160" height="30" as="geometry" />
        </mxCell>
        <mxCell id="ynILaGJSniYz3ZEpiR_t-73" value="category_slug" style="text;strokeColor=#EEEEEE;fillColor=#56517E;spacingLeft=4;spacingRight=4;overflow=hidden;rotatable=1;points=[[0,0.5],[1,0.5]];portConstraint=eastwest;fontSize=12;whiteSpace=wrap;html=1;labelBackgroundColor=none;fontColor=#FFFFFF;rounded=1;movable=1;resizable=1;deletable=1;editable=1;locked=0;connectable=1;" vertex="1" parent="ynILaGJSniYz3ZEpiR_t-70">
          <mxGeometry y="86" width="160" height="30" as="geometry" />
        </mxCell>
        <mxCell id="ynILaGJSniYz3ZEpiR_t-74" value="category_status" style="text;strokeColor=#EEEEEE;fillColor=#56517E;spacingLeft=4;spacingRight=4;overflow=hidden;rotatable=1;points=[[0,0.5],[1,0.5]];portConstraint=eastwest;fontSize=12;whiteSpace=wrap;html=1;labelBackgroundColor=none;fontColor=#FFFFFF;rounded=1;movable=1;resizable=1;deletable=1;editable=1;locked=0;connectable=1;" vertex="1" parent="ynILaGJSniYz3ZEpiR_t-70">
          <mxGeometry y="116" width="160" height="30" as="geometry" />
        </mxCell>
        <mxCell id="ynILaGJSniYz3ZEpiR_t-75" value="packages" style="swimlane;fontStyle=1;childLayout=stackLayout;horizontal=1;startSize=26;horizontalStack=0;resizeParent=1;resizeParentMax=0;resizeLast=0;collapsible=1;marginBottom=0;align=center;fontSize=14;labelBackgroundColor=none;fillColor=#56517E;strokeColor=#EEEEEE;fontColor=#FFFFFF;rounded=1;movable=1;resizable=1;rotatable=1;deletable=1;editable=1;locked=0;connectable=1;arcSize=18;" vertex="1" parent="1">
          <mxGeometry x="385" y="483" width="160" height="236" as="geometry" />
        </mxCell>
        <mxCell id="ynILaGJSniYz3ZEpiR_t-76" value="id" style="text;strokeColor=#EEEEEE;fillColor=#56517E;spacingLeft=4;spacingRight=4;overflow=hidden;rotatable=1;points=[[0,0.5],[1,0.5]];portConstraint=eastwest;fontSize=12;whiteSpace=wrap;html=1;labelBackgroundColor=none;fontColor=#FFFFFF;rounded=1;movable=1;resizable=1;deletable=1;editable=1;locked=0;connectable=1;" vertex="1" parent="ynILaGJSniYz3ZEpiR_t-75">
          <mxGeometry y="26" width="160" height="30" as="geometry" />
        </mxCell>
        <mxCell id="ynILaGJSniYz3ZEpiR_t-104" value="category_id ( foreign key )" style="text;strokeColor=#EEEEEE;fillColor=#56517E;spacingLeft=4;spacingRight=4;overflow=hidden;rotatable=1;points=[[0,0.5],[1,0.5]];portConstraint=eastwest;fontSize=12;whiteSpace=wrap;html=1;labelBackgroundColor=none;fontColor=#FFFFFF;rounded=1;movable=1;resizable=1;deletable=1;editable=1;locked=0;connectable=1;" vertex="1" parent="ynILaGJSniYz3ZEpiR_t-75">
          <mxGeometry y="56" width="160" height="30" as="geometry" />
        </mxCell>
        <mxCell id="ynILaGJSniYz3ZEpiR_t-77" value="package_title" style="text;strokeColor=#EEEEEE;fillColor=#56517E;spacingLeft=4;spacingRight=4;overflow=hidden;rotatable=1;points=[[0,0.5],[1,0.5]];portConstraint=eastwest;fontSize=12;whiteSpace=wrap;html=1;labelBackgroundColor=none;fontColor=#FFFFFF;rounded=1;movable=1;resizable=1;deletable=1;editable=1;locked=0;connectable=1;" vertex="1" parent="ynILaGJSniYz3ZEpiR_t-75">
          <mxGeometry y="86" width="160" height="30" as="geometry" />
        </mxCell>
        <mxCell id="ynILaGJSniYz3ZEpiR_t-79" value="package_price" style="text;strokeColor=#EEEEEE;fillColor=#56517E;spacingLeft=4;spacingRight=4;overflow=hidden;rotatable=1;points=[[0,0.5],[1,0.5]];portConstraint=eastwest;fontSize=12;whiteSpace=wrap;html=1;labelBackgroundColor=none;fontColor=#FFFFFF;rounded=1;movable=1;resizable=1;deletable=1;editable=1;locked=0;connectable=1;" vertex="1" parent="ynILaGJSniYz3ZEpiR_t-75">
          <mxGeometry y="116" width="160" height="30" as="geometry" />
        </mxCell>
        <mxCell id="ynILaGJSniYz3ZEpiR_t-78" value="package_location" style="text;strokeColor=#EEEEEE;fillColor=#56517E;spacingLeft=4;spacingRight=4;overflow=hidden;rotatable=1;points=[[0,0.5],[1,0.5]];portConstraint=eastwest;fontSize=12;whiteSpace=wrap;html=1;labelBackgroundColor=none;fontColor=#FFFFFF;rounded=1;movable=1;resizable=1;deletable=1;editable=1;locked=0;connectable=1;" vertex="1" parent="ynILaGJSniYz3ZEpiR_t-75">
          <mxGeometry y="146" width="160" height="30" as="geometry" />
        </mxCell>
        <mxCell id="ynILaGJSniYz3ZEpiR_t-80" value="package_plan" style="text;strokeColor=#EEEEEE;fillColor=#56517E;spacingLeft=4;spacingRight=4;overflow=hidden;rotatable=1;points=[[0,0.5],[1,0.5]];portConstraint=eastwest;fontSize=12;whiteSpace=wrap;html=1;labelBackgroundColor=none;fontColor=#FFFFFF;rounded=1;movable=1;resizable=1;deletable=1;editable=1;locked=0;connectable=1;" vertex="1" parent="ynILaGJSniYz3ZEpiR_t-75">
          <mxGeometry y="176" width="160" height="30" as="geometry" />
        </mxCell>
        <mxCell id="ynILaGJSniYz3ZEpiR_t-81" value="featured ( Yes or No )" style="text;strokeColor=#EEEEEE;fillColor=#56517E;spacingLeft=4;spacingRight=4;overflow=hidden;rotatable=1;points=[[0,0.5],[1,0.5]];portConstraint=eastwest;fontSize=12;whiteSpace=wrap;html=1;labelBackgroundColor=none;fontColor=#FFFFFF;rounded=1;movable=1;resizable=1;deletable=1;editable=1;locked=0;connectable=1;" vertex="1" parent="ynILaGJSniYz3ZEpiR_t-75">
          <mxGeometry y="206" width="160" height="30" as="geometry" />
        </mxCell>
        <mxCell id="ynILaGJSniYz3ZEpiR_t-82" value="package_bookings" style="swimlane;fontStyle=1;childLayout=stackLayout;horizontal=1;startSize=26;horizontalStack=0;resizeParent=1;resizeParentMax=0;resizeLast=0;collapsible=1;marginBottom=0;align=center;fontSize=14;labelBackgroundColor=none;fillColor=#56517E;strokeColor=#EEEEEE;fontColor=#FFFFFF;rounded=1;movable=1;resizable=1;rotatable=1;deletable=1;editable=1;locked=0;connectable=1;" vertex="1" parent="1">
          <mxGeometry x="91" y="525" width="160" height="236" as="geometry" />
        </mxCell>
        <mxCell id="ynILaGJSniYz3ZEpiR_t-83" value="id" style="text;strokeColor=#EEEEEE;fillColor=#56517E;spacingLeft=4;spacingRight=4;overflow=hidden;rotatable=1;points=[[0,0.5],[1,0.5]];portConstraint=eastwest;fontSize=12;whiteSpace=wrap;html=1;labelBackgroundColor=none;fontColor=#FFFFFF;rounded=1;movable=1;resizable=1;deletable=1;editable=1;locked=0;connectable=1;" vertex="1" parent="ynILaGJSniYz3ZEpiR_t-82">
          <mxGeometry y="26" width="160" height="30" as="geometry" />
        </mxCell>
        <mxCell id="ynILaGJSniYz3ZEpiR_t-84" value="booking_id" style="text;strokeColor=#EEEEEE;fillColor=#56517E;spacingLeft=4;spacingRight=4;overflow=hidden;rotatable=1;points=[[0,0.5],[1,0.5]];portConstraint=eastwest;fontSize=12;whiteSpace=wrap;html=1;labelBackgroundColor=none;fontColor=#FFFFFF;rounded=1;movable=1;resizable=1;deletable=1;editable=1;locked=0;connectable=1;" vertex="1" parent="ynILaGJSniYz3ZEpiR_t-82">
          <mxGeometry y="56" width="160" height="30" as="geometry" />
        </mxCell>
        <mxCell id="ynILaGJSniYz3ZEpiR_t-85" value="customer_id ( foreign key )" style="text;strokeColor=#EEEEEE;fillColor=#56517E;spacingLeft=4;spacingRight=4;overflow=hidden;rotatable=1;points=[[0,0.5],[1,0.5]];portConstraint=eastwest;fontSize=12;whiteSpace=wrap;html=1;labelBackgroundColor=none;fontColor=#FFFFFF;rounded=1;movable=1;resizable=1;deletable=1;editable=1;locked=0;connectable=1;" vertex="1" parent="ynILaGJSniYz3ZEpiR_t-82">
          <mxGeometry y="86" width="160" height="30" as="geometry" />
        </mxCell>
        <mxCell id="ynILaGJSniYz3ZEpiR_t-86" value="package_id ( foreign key )" style="text;strokeColor=#EEEEEE;fillColor=#56517E;spacingLeft=4;spacingRight=4;overflow=hidden;rotatable=1;points=[[0,0.5],[1,0.5]];portConstraint=eastwest;fontSize=12;whiteSpace=wrap;html=1;labelBackgroundColor=none;fontColor=#FFFFFF;rounded=1;movable=1;resizable=1;deletable=1;editable=1;locked=0;connectable=1;" vertex="1" parent="ynILaGJSniYz3ZEpiR_t-82">
          <mxGeometry y="116" width="160" height="30" as="geometry" />
        </mxCell>
        <mxCell id="ynILaGJSniYz3ZEpiR_t-88" value="payment_method" style="text;strokeColor=#EEEEEE;fillColor=#56517E;spacingLeft=4;spacingRight=4;overflow=hidden;rotatable=1;points=[[0,0.5],[1,0.5]];portConstraint=eastwest;fontSize=12;whiteSpace=wrap;html=1;labelBackgroundColor=none;fontColor=#FFFFFF;rounded=1;movable=1;resizable=1;deletable=1;editable=1;locked=0;connectable=1;" vertex="1" parent="ynILaGJSniYz3ZEpiR_t-82">
          <mxGeometry y="146" width="160" height="30" as="geometry" />
        </mxCell>
        <mxCell id="ynILaGJSniYz3ZEpiR_t-89" value="payment_status" style="text;strokeColor=#EEEEEE;fillColor=#56517E;spacingLeft=4;spacingRight=4;overflow=hidden;rotatable=1;points=[[0,0.5],[1,0.5]];portConstraint=eastwest;fontSize=12;whiteSpace=wrap;html=1;labelBackgroundColor=none;fontColor=#FFFFFF;rounded=1;movable=1;resizable=1;deletable=1;editable=1;locked=0;connectable=1;" vertex="1" parent="ynILaGJSniYz3ZEpiR_t-82">
          <mxGeometry y="176" width="160" height="30" as="geometry" />
        </mxCell>
        <mxCell id="ynILaGJSniYz3ZEpiR_t-90" value="attachment" style="text;strokeColor=#EEEEEE;fillColor=#56517E;spacingLeft=4;spacingRight=4;overflow=hidden;rotatable=1;points=[[0,0.5],[1,0.5]];portConstraint=eastwest;fontSize=12;whiteSpace=wrap;html=1;labelBackgroundColor=none;fontColor=#FFFFFF;rounded=1;movable=1;resizable=1;deletable=1;editable=1;locked=0;connectable=1;" vertex="1" parent="ynILaGJSniYz3ZEpiR_t-82">
          <mxGeometry y="206" width="160" height="30" as="geometry" />
        </mxCell>
        <mxCell id="ynILaGJSniYz3ZEpiR_t-91" value="" style="edgeStyle=entityRelationEdgeStyle;fontSize=12;html=1;endArrow=ERmandOne;startArrow=ERmandOne;rounded=1;strokeColor=#182E3E;exitX=1;exitY=0.5;exitDx=0;exitDy=0;curved=0;flowAnimation=0;fontStyle=1" edge="1" parent="1" source="ynILaGJSniYz3ZEpiR_t-1">
          <mxGeometry width="100" height="100" relative="1" as="geometry">
            <mxPoint x="-35" y="97" as="sourcePoint" />
            <mxPoint x="65" y="-3" as="targetPoint" />
            <Array as="points">
              <mxPoint x="-392" y="-52" />
            </Array>
          </mxGeometry>
        </mxCell>
        <mxCell id="ynILaGJSniYz3ZEpiR_t-93" value="" style="edgeStyle=entityRelationEdgeStyle;fontSize=12;html=1;endArrow=ERmandOne;startArrow=ERmandOne;rounded=1;strokeColor=#182E3E;curved=0;flowAnimation=0;fontStyle=1;entryX=0;entryY=0.5;entryDx=0;entryDy=0;" edge="1" parent="1" source="ynILaGJSniYz3ZEpiR_t-20" target="ynILaGJSniYz3ZEpiR_t-33">
          <mxGeometry width="100" height="100" relative="1" as="geometry">
            <mxPoint x="223" y="-3" as="sourcePoint" />
            <mxPoint x="345" y="19" as="targetPoint" />
            <Array as="points">
              <mxPoint x="-112" y="-30" />
            </Array>
          </mxGeometry>
        </mxCell>
        <mxCell id="ynILaGJSniYz3ZEpiR_t-94" value="" style="edgeStyle=entityRelationEdgeStyle;fontSize=12;html=1;endArrow=ERmandOne;startArrow=ERmandOne;rounded=1;strokeColor=#182E3E;curved=0;flowAnimation=0;fontStyle=1;entryX=0;entryY=0.5;entryDx=0;entryDy=0;exitX=1;exitY=0.25;exitDx=0;exitDy=0;" edge="1" parent="1" source="ynILaGJSniYz3ZEpiR_t-27" target="ynILaGJSniYz3ZEpiR_t-12">
          <mxGeometry width="100" height="100" relative="1" as="geometry">
            <mxPoint x="468" y="-102.5" as="sourcePoint" />
            <mxPoint x="539" y="38.5" as="targetPoint" />
            <Array as="points">
              <mxPoint x="133" y="-131.5" />
              <mxPoint x="574" y="-171.5" />
            </Array>
          </mxGeometry>
        </mxCell>
        <mxCell id="ynILaGJSniYz3ZEpiR_t-95" value="" style="edgeStyle=entityRelationEdgeStyle;fontSize=12;html=1;endArrow=ERmandOne;startArrow=ERmandOne;rounded=1;strokeColor=#182E3E;curved=0;flowAnimation=0;fontStyle=1;entryX=0;entryY=0.5;entryDx=0;entryDy=0;exitX=1;exitY=0.5;exitDx=0;exitDy=0;" edge="1" parent="1" source="ynILaGJSniYz3ZEpiR_t-52" target="ynILaGJSniYz3ZEpiR_t-59">
          <mxGeometry width="100" height="100" relative="1" as="geometry">
            <mxPoint x="238" y="301" as="sourcePoint" />
            <mxPoint x="323" y="354" as="targetPoint" />
            <Array as="points">
              <mxPoint x="-97" y="272" />
            </Array>
          </mxGeometry>
        </mxCell>
        <mxCell id="ynILaGJSniYz3ZEpiR_t-96" value="" style="edgeStyle=entityRelationEdgeStyle;fontSize=12;html=1;endArrow=ERmandOne;startArrow=ERmandOne;rounded=1;strokeColor=#182E3E;curved=0;flowAnimation=0;fontStyle=1;entryX=0;entryY=0.25;entryDx=0;entryDy=0;exitX=1;exitY=0.5;exitDx=0;exitDy=0;" edge="1" parent="1" source="ynILaGJSniYz3ZEpiR_t-53" target="ynILaGJSniYz3ZEpiR_t-27">
          <mxGeometry width="100" height="100" relative="1" as="geometry">
            <mxPoint x="245" y="329" as="sourcePoint" />
            <mxPoint x="304" y="4.5" as="targetPoint" />
            <Array as="points">
              <mxPoint x="-138" y="25.5" />
            </Array>
          </mxGeometry>
        </mxCell>
        <mxCell id="ynILaGJSniYz3ZEpiR_t-97" value="" style="edgeStyle=entityRelationEdgeStyle;fontSize=12;html=1;endArrow=ERmandOne;startArrow=ERmandOne;rounded=1;strokeColor=#182E3E;curved=0;flowAnimation=0;fontStyle=1;entryX=0;entryY=0.5;entryDx=0;entryDy=0;" edge="1" parent="1">
          <mxGeometry width="100" height="100" relative="1" as="geometry">
            <mxPoint x="252" y="630" as="sourcePoint" />
            <mxPoint x="352" y="258" as="targetPoint" />
            <Array as="points">
              <mxPoint x="-90" y="279" />
            </Array>
          </mxGeometry>
        </mxCell>
        <mxCell id="ynILaGJSniYz3ZEpiR_t-98" value="" style="edgeStyle=entityRelationEdgeStyle;fontSize=12;html=1;endArrow=ERmandOne;startArrow=ERmandOne;rounded=1;strokeColor=#182E3E;curved=0;flowAnimation=0;fontStyle=1;entryX=0;entryY=0.5;entryDx=0;entryDy=0;exitX=1;exitY=0.5;exitDx=0;exitDy=0;" edge="1" parent="1" source="ynILaGJSniYz3ZEpiR_t-86" target="ynILaGJSniYz3ZEpiR_t-76">
          <mxGeometry width="100" height="100" relative="1" as="geometry">
            <mxPoint x="251" y="585" as="sourcePoint" />
            <mxPoint x="373" y="532" as="targetPoint" />
            <Array as="points">
              <mxPoint x="-69" y="553" />
            </Array>
          </mxGeometry>
        </mxCell>
        <mxCell id="ynILaGJSniYz3ZEpiR_t-99" value="package_setting" style="swimlane;fontStyle=1;childLayout=stackLayout;horizontal=1;startSize=26;horizontalStack=0;resizeParent=1;resizeParentMax=0;resizeLast=0;collapsible=1;marginBottom=0;align=center;fontSize=14;labelBackgroundColor=none;fillColor=#56517E;strokeColor=#EEEEEE;fontColor=#FFFFFF;rounded=1;" vertex="1" parent="1">
          <mxGeometry x="308" y="784" width="160" height="146" as="geometry" />
        </mxCell>
        <mxCell id="ynILaGJSniYz3ZEpiR_t-100" value="id" style="text;strokeColor=#EEEEEE;fillColor=#56517E;spacingLeft=4;spacingRight=4;overflow=hidden;rotatable=0;points=[[0,0.5],[1,0.5]];portConstraint=eastwest;fontSize=12;whiteSpace=wrap;html=1;labelBackgroundColor=none;fontColor=#FFFFFF;rounded=1;" vertex="1" parent="ynILaGJSniYz3ZEpiR_t-99">
          <mxGeometry y="26" width="160" height="30" as="geometry" />
        </mxCell>
        <mxCell id="ynILaGJSniYz3ZEpiR_t-101" value="category_id" style="text;strokeColor=#EEEEEE;fillColor=#56517E;spacingLeft=4;spacingRight=4;overflow=hidden;rotatable=0;points=[[0,0.5],[1,0.5]];portConstraint=eastwest;fontSize=12;whiteSpace=wrap;html=1;labelBackgroundColor=none;fontColor=#FFFFFF;rounded=1;" vertex="1" parent="ynILaGJSniYz3ZEpiR_t-99">
          <mxGeometry y="56" width="160" height="30" as="geometry" />
        </mxCell>
        <mxCell id="ynILaGJSniYz3ZEpiR_t-102" value="rating_id" style="text;strokeColor=#EEEEEE;fillColor=#56517E;spacingLeft=4;spacingRight=4;overflow=hidden;rotatable=0;points=[[0,0.5],[1,0.5]];portConstraint=eastwest;fontSize=12;whiteSpace=wrap;html=1;labelBackgroundColor=none;fontColor=#FFFFFF;rounded=1;" vertex="1" parent="ynILaGJSniYz3ZEpiR_t-99">
          <mxGeometry y="86" width="160" height="30" as="geometry" />
        </mxCell>
        <mxCell id="ynILaGJSniYz3ZEpiR_t-103" value="guest_id" style="text;strokeColor=#EEEEEE;fillColor=#56517E;spacingLeft=4;spacingRight=4;overflow=hidden;rotatable=0;points=[[0,0.5],[1,0.5]];portConstraint=eastwest;fontSize=12;whiteSpace=wrap;html=1;labelBackgroundColor=none;fontColor=#FFFFFF;rounded=1;" vertex="1" parent="ynILaGJSniYz3ZEpiR_t-99">
          <mxGeometry y="116" width="160" height="30" as="geometry" />
        </mxCell>
        <mxCell id="ynILaGJSniYz3ZEpiR_t-105" value="" style="edgeStyle=orthogonalEdgeStyle;fontSize=12;html=1;endArrow=ERmandOne;startArrow=ERmandOne;rounded=1;strokeColor=#182E3E;flowAnimation=0;fontStyle=1;exitX=1;exitY=0.25;exitDx=0;exitDy=0;entryX=1;entryY=0.5;entryDx=0;entryDy=0;elbow=vertical;" edge="1" parent="1" source="ynILaGJSniYz3ZEpiR_t-70" target="ynILaGJSniYz3ZEpiR_t-104">
          <mxGeometry width="100" height="100" relative="1" as="geometry">
            <mxPoint x="482" y="858" as="sourcePoint" />
            <mxPoint x="672" y="497" as="targetPoint" />
          </mxGeometry>
        </mxCell>
        <mxCell id="ynILaGJSniYz3ZEpiR_t-106" value="" style="edgeStyle=orthogonalEdgeStyle;fontSize=12;html=1;endArrow=ERmandOne;startArrow=ERmandOne;rounded=1;strokeColor=#182E3E;flowAnimation=0;fontStyle=1;entryX=1;entryY=0.25;entryDx=0;entryDy=0;exitX=1;exitY=0.5;exitDx=0;exitDy=0;" edge="1" parent="1" source="ynILaGJSniYz3ZEpiR_t-103" target="ynILaGJSniYz3ZEpiR_t-58">
          <mxGeometry width="100" height="100" relative="1" as="geometry">
            <mxPoint x="476" y="910" as="sourcePoint" />
            <mxPoint x="679" y="322" as="targetPoint" />
            <Array as="points">
              <mxPoint x="518" y="915" />
              <mxPoint x="518" y="805" />
              <mxPoint x="581" y="805" />
              <mxPoint x="581" y="258" />
            </Array>
          </mxGeometry>
        </mxCell>
        <mxCell id="ynILaGJSniYz3ZEpiR_t-107" value="" style="edgeStyle=orthogonalEdgeStyle;fontSize=12;html=1;endArrow=ERmandOne;startArrow=ERmandOne;rounded=1;strokeColor=#182E3E;flowAnimation=0;fontStyle=1;exitX=1;exitY=0.5;exitDx=0;exitDy=0;entryX=0;entryY=0.5;entryDx=0;entryDy=0;" edge="1" parent="1" source="ynILaGJSniYz3ZEpiR_t-5" target="ynILaGJSniYz3ZEpiR_t-59">
          <mxGeometry width="100" height="100" relative="1" as="geometry">
            <mxPoint x="-63" y="-35" as="sourcePoint" />
            <mxPoint x="210" y="182" as="targetPoint" />
            <Array as="points">
              <mxPoint x="-7" y="33" />
              <mxPoint x="-7" y="154" />
              <mxPoint x="245" y="154" />
              <mxPoint x="245" y="251" />
            </Array>
          </mxGeometry>
        </mxCell>
        <mxCell id="ynILaGJSniYz3ZEpiR_t-109" value="" style="edgeLabel;html=1;align=center;verticalAlign=middle;resizable=0;points=[];strokeColor=#EEEEEE;fontColor=#FFFFFF;fillColor=#56517E;" vertex="1" connectable="0" parent="ynILaGJSniYz3ZEpiR_t-107">
          <mxGeometry x="-0.0226" y="1" relative="1" as="geometry">
            <mxPoint as="offset" />
          </mxGeometry>
        </mxCell>
      </root>
    </mxGraphModel>
  </diagram>
</mxfile>
